<?xml version="1.0" encoding="utf-8"?>
<!-- Svg Vector Icons : http://www.onlinewebfonts.com/icon -->
<!DOCTYPE svg PUBLIC "-//W3C//DTD SVG 1.1//EN" "http://www.w3.org/Graphics/SVG/1.1/DTD/svg11.dtd">
<svg version="1.1" xmlns="http://www.w3.org/2000/svg" xmlns:xlink="http://www.w3.org/1999/xlink" x="0px" y="0px" viewBox="0 0 1000 1000" enable-background="new 0 0 1000 1000" xml:space="preserve">
<metadata> Svg Vector Icons : http://www.onlinewebfonts.com/icon </metadata>
<g><g transform="translate(0.000000,512.000000) scale(0.100000,-0.100000)"><path d="M5526.8,4997.9c-97.8-24.9-155.4-65.2-245.5-176.5c-182.2-224.4-422-640.7-521.7-903.5c-19.2-51.8-36.4-92.1-40.3-92.1c-3.8,0-48,30.7-97.8,69.1c-151.5,115.1-347.2,203.3-529.4,237.9c-51.8,11.5-232.1,26.9-402.8,38.4c-170.7,11.5-341.4,30.7-377.9,42.2c-105.5,32.6-180.3,99.7-245.5,220.6c-80.6,151.5-122.8,188-224.4,188c-92.1,0-138.1-30.7-174.6-117c-28.8-71-5.8-471.9,38.4-634.9l26.9-97.8l-51.8-13.4c-103.6-26.9-502.6-182.2-636.8-249.4c-964.8-487.2-1594-1337-1837.6-2484.1C127,657.1,100.2,382.8,100.2-77.6c-1.9-460.4,9.6-575.5,95.9-964.8C581.7-2788,2087.4-4257.4,3905.9-4662.1c416.3-94,615.7-113.2,1093.4-113.2c863.2,3.8,1549.9,159.2,2273.1,516c525.6,259,882.4,517.9,1281.3,928.4c728.9,751.9,1143.3,1659.2,1310.1,2879.2c47.9,345.3,47.9,1191.2,1.9,1496.2c-69,439.3-165,774.9-320.3,1106.8c-143.9,305-285.8,506.4-535.2,755.8c-314.6,316.5-625.3,508.3-1041.6,644.5c-149.6,48-166.9,57.5-153.5,92.1c30.7,84.4,13.5,199.5-34.5,249.4c-57.5,55.6-126.6,63.3-264.7,30.7c-138.1-34.5-222.5-19.2-504.5,86.3c-266.6,97.8-441.2,141.9-585,141.9c-130.4,0-360.6-61.4-506.4-134.3c-65.2-32.6-122.8-55.6-128.5-51.8c-11.5,13.4,76.7,180.3,151.5,285.8c36.5,49.9,122.8,151.5,193.7,226.3c71,74.8,134.3,157.3,140,182.2c30.7,120.8-71,247.4-251.3,314.6C5914.2,5017.1,5653.4,5028.6,5526.8,4997.9z M5622.7,4480c-142-209.1-232.1-406.7-289.7-629.2c-84.4-329.9-48-539,101.7-567.8c82.5-15.4,151.5,17.3,291.6,134.3c159.2,132.4,303.1,222.5,466.1,287.7c103.6,42.2,138.1,48,282,38.4c136.2-7.7,205.2-23,391.3-95.9c124.7-48,276.2-97.8,335.7-111.3c59.5-13.4,111.3-24.9,115.1-28.8c11.5-7.7-94-166.9-147.7-224.4c-113.2-122.8-166.9-136.2-564-142c-395.1-3.8-437.3-13.4-475.7-117c-26.9-69.1,1.9-174.6,61.4-218.7c26.9-19.2,115.1-53.7,197.6-72.9c295.4-74.8,377.9-132.4,598.5-425.8c78.6-101.7,172.6-209.1,209.1-237.9c36.5-26.9,67.1-57.5,67.1-65.2c0-28.8-283.9-95.9-414.3-97.8c-161.1-1.9-216.8,11.5-353,78.6c-149.6,74.8-274.3,182.2-460.4,397.1C5791.5,2659.7,5774.2,2675,5686,2675c-57.5,0-88.2-13.4-132.3-55.6c-74.8-74.8-72.9-153.5,9.6-333.8c111.3-245.5,134.3-335.7,134.3-512.2c-1.9-149.6-13.4-197.6-115.1-498.7c-63.3-182.2-122.8-335.7-132.3-339.5c-26.9-7.7-243.6,184.1-354.9,314.6c-107.4,124.7-195.7,295.4-230.2,445c-23,99.8-19.2,285.8,11.5,598.5c13.4,145.8-15.4,214.8-103.6,239.8c-140,38.4-211-7.7-301.2-197.6c-124.7-257-314.6-414.3-567.8-468c-136.2-28.8-485.3-9.6-675.2,36.4c-82.5,21.1-153.5,42.2-161.1,48c-5.8,7.7,15.4,42.2,48,78.6c90.2,103.6,153.5,222.5,226.4,423.9c86.3,243.6,126.6,318.4,207.2,389.4c92.1,80.6,172.6,99.8,437.4,113.2c193.7,9.6,230.2,17.3,278.1,53.7c44.1,36.4,53.7,59.5,53.7,130.4c0,165-97.8,216.8-508.3,272.4c-282,38.4-395.2,71-493,141.9c-76.7,55.6-159.2,174.6-186.1,264.7c-13.4,40.3-11.5,40.3,78.6,13.4c49.9-17.3,234-38.4,408.6-48c312.7-19.2,462.3-44.1,596.6-101.7c90.2-38.4,293.5-191.8,331.8-253.2c19.2-26.9,69.1-82.5,111.3-124.7c86.3-82.5,149.6-95.9,243.6-46c49.9,24.9,117,128.5,117,178.4c0,11.5,26.9,101.7,59.5,199.5c113.2,337.6,454.6,932.2,560.1,974.4C5726.2,4646.9,5724.3,4627.7,5622.7,4480z M2975.6,3329.1c42.2-42.2,126.6-105.5,186.1-141.9l109.3-65.2l-55.6-53.7c-71-69.1-155.4-228.3-228.3-435.4c-109.3-314.6-178.4-400.9-379.8-473.8c-165-61.4-189.9-76.7-228.3-145.8c-38.4-72.9-26.9-138.1,36.4-209.1c49.9-59.5,402.8-199.5,675.2-270.5c105.5-26.9,287.7-59.5,404.7-71c182.2-19.2,243.6-17.3,412.4,9.6c195.6,32.6,376,99.8,496.8,186.1l55.6,40.3l13.4-53.7c88.2-400.9,335.7-742.3,755.8-1045.4c201.4-143.9,301.1-191.8,368.3-172.6c109.3,28.8,136.2,78.6,289.6,523.7c151.5,443.1,205.3,633,205.3,742.3c0,32.6,3.8,61.4,7.7,61.4c3.8,0,57.5-30.7,118.9-67.1c416.2-251.3,859.4-237.9,1396.5,44.1c230.2,120.8,299.2,186.1,299.2,285.8c0,109.3-53.7,166.9-199.5,216.8c-172.6,57.5-283.9,134.3-377.9,262.8c-46,61.4-115.1,151.5-155.4,201.4l-72.9,88.2l103.6,48c122.7,57.5,276.2,191.8,351,312.7c32.6,51.8,67.1,84.4,90.2,84.4c67.1,0,383.6-118.9,550.5-205.2c397.1-207.2,723.1-533.3,926.5-926.5c295.4-569.7,408.6-1195,374-2062.1C9461-990.7,9179-1863.5,8647.7-2615.4c-182.2-257.1-613.8-696.3-876.6-890c-780.7-575.5-1737.9-880.4-2762.2-878.5c-550.5,0-941.8,61.4-1457.8,232.1C2403.9-3770.1,1431.4-2930,903.9-1863.5C610.4-1266.9,489.6-752.8,489.6-85.3c1.9,767.3,120.9,1327.4,404.7,1906.7c291.6,590.8,725.1,1032,1304.4,1323.6c201.4,101.7,598.5,255.1,671.4,257C2885.4,3403.9,2931.4,3369.4,2975.6,3329.1z"/></g></g>
</svg>